<svg width="23" height="26" viewBox="0 0 23 26" fill="none" xmlns="http://www.w3.org/2000/svg">
<path d="M9.18269 2.17758C9.36945 1.71597 9.68982 1.32065 10.1027 1.0423C10.5156 0.763942 11.0022 0.615234 11.5002 0.615234C11.9981 0.615234 12.4848 0.763942 12.8977 1.0423C13.3106 1.32065 13.6309 1.71597 13.8177 2.17758C15.6661 2.68593 17.2966 3.78703 18.4586 5.31175C19.6207 6.83647 20.2501 8.70051 20.2502 10.6176V16.4888L22.5402 19.9238C22.6658 20.1121 22.7379 20.3309 22.7489 20.5569C22.7599 20.783 22.7093 21.0077 22.6025 21.2073C22.4958 21.4068 22.3368 21.5736 22.1427 21.6899C21.9486 21.8062 21.7265 21.8676 21.5002 21.8676H15.8314C15.6809 22.909 15.1603 23.8613 14.3648 24.55C13.5694 25.2388 12.5524 25.6179 11.5002 25.6179C10.448 25.6179 9.43101 25.2388 8.63556 24.55C7.84011 23.8613 7.31944 22.909 7.16894 21.8676H1.50019C1.27388 21.8676 1.05182 21.8062 0.857676 21.6899C0.663536 21.5736 0.504607 21.4068 0.397845 21.2073C0.291083 21.0077 0.240493 20.783 0.251472 20.5569C0.262452 20.3309 0.334589 20.1121 0.460187 19.9238L2.75019 16.4888V10.6176C2.75019 6.58758 5.47519 3.19258 9.18269 2.17758ZM9.73269 21.8676C9.86179 22.2334 10.1012 22.5502 10.4178 22.7742C10.7345 22.9983 11.1129 23.1186 11.5008 23.1186C11.8887 23.1186 12.2671 22.9983 12.5838 22.7742C12.9005 22.5502 13.1398 22.2334 13.2689 21.8676H9.73144H9.73269ZM11.5002 4.36758C9.84258 4.36758 8.25287 5.02606 7.08077 6.19816C5.90867 7.37027 5.25019 8.95998 5.25019 10.6176V16.8676C5.25024 17.1145 5.17717 17.3559 5.04019 17.5613L3.83644 19.3676H19.1627L17.9589 17.5613C17.8224 17.3558 17.7498 17.1144 17.7502 16.8676V10.6176C17.7502 8.95998 17.0917 7.37027 15.9196 6.19816C14.7475 5.02606 13.1578 4.36758 11.5002 4.36758Z" fill="white"/>
</svg>
